<?xml version="1.0" encoding="UTF-8"?>
<svg version="1.1" viewBox="0 0 2048 1257" width="1280" height="1280" xmlns="http://www.w3.org/2000/svg">
<path transform="translate(0)" d="m0 0h2048v1257h-2048z"/>
<path transform="translate(316,750)" d="m0 0h75l2 18 6 60 1 5 5-8 13-21 17-26 15-24 4-4h76l-2 9-12 43v3l8-10 8-9 11-9 10-8 14-8 14-6 16-4 10-1h17l15 2 14 5 10 6 9 8 9 12 4 8 2 1 1-9 7-26 2-7h165l-1 7-9 32 1 1 13-13 14-10 17-9 15-5 21-3h14l19 3 12 5 10 6 12 12 5 8-2-28v-6h65l1 1 7 69v12l4-2 2-3v-18l-4-46v-13h64l1 1 6 60 1 12v10l5-5 14-22 12-19 10-15 10-16 2-5 2-1h68l-1 4-13 19-1 3 9-6 14-9 21-8 9-2 10-1h18l14 2 16 6 11 7 9 9 7 11 6 14 3 9 2-7 5-21 6-21 3-9h93l17 1 12 3 10 5 9 8 6 12 1 4 2 21 13-51 2-3h66l-4 16-11 39v3l8-8 7-8 15-15 7-8 19-19h79l-6 7-12 11-7 8-65 65-4 5 2 6 12 27 14 31 9 20 3 9h-73l-15-32-11-26v-2h-2l-4 16-7 27-4 16-1 1h-121l-14-31-6-13-3-5-7-1-3 12-6 21-4 16-4 2-63-1 12-44 2-9-16 17-11 10-13 9-16 8-13 5-18 4h-24l-15-3-13-5-11-8-10-10-8-13-4-11-2-14v-22l-6 9-30 48-14 23-4 6h-63l-1-15-4 4-4 6-2 5-62 1-1-2-3-37-4-45v-6l-2 1-6 16-8 14-10 13-11 12-14 11-13 8-18 8-13 4-12 2h-23l-15-3-12-5-13-9-9-10-8-14-5-16-1-9v-13l3-16 6-18 6-11-39 1-9 36-13 47-10 39-4 2-63-1 11-44 10-37 12-42-38-1v14l-3 18-7 19-9 16-9 11-10 11-8 7-17 12-19 9-16 5-12 2h-23l-14-3-13-5-13-9-9-10-8-15-5-16v-3h-2l-1 10-11 44-2 7h-66l3-14 3-11v-3l-14 24-1 4h-63v-34h-2l-2 8-7 26h-66l4-17 24-90 10-38 7-25 4-17z" fill="#FDFDFC"/>
<path transform="translate(955,220)" d="m0 0h63l32 3 32 5 22 5 26 7 3 3-1 7-8 8-4 3h-2l-2 4-15 14-11 12-4 7v7l2 3 9-1 24-5 28-4 24-2h36l27 3 29 5 24 6 21 7 24 10 16 8 17 9 21 14 14 10 13 11 8 7 10 9 12 12 7 8 11 13 12 16 14 21 12 22 2 7-6 7-5-1-11-9-10-9-11-9-14-11-18-13-19-12-29-16-20-9-24-9-28-9-27-7-38-6-20-2-17-1h-36l-38 4-29 5-23 5-25 8-20 7-27 12-6 3h-2v2l-17 9-24 15-32 24-11 9-15 14-15 15-11 9-5-1-4-3v-7l7-16 11-21 14-23 10-13 11-14 11-13 4-6 1-6-9-3-35-6-33-3h-40l-29 3-37 6-9 3-17 4-26 9-22 9-20 10-10 6h-2v2l-8 4-10 7-19 13-28 22-11 9-14 12-11 9-4 1-6-4-1-6 11-23 7-12 11-18 8-12 12-17 13-16 9-11 11-12 15-16 17-16 10-9 20-16 20-15 25-16 15-9 14-8 19-9 15-7 21-9 36-12 44-11 37-6z" fill="#FD7806"/>
<path transform="translate(321,758)" d="m0 0h62l1 1 4 45 5 40 2 11 11-18 7-10 12-20 7-10 12-19 8-13 4-6 18-1h45l-3 15-14 56-11 40-7 24-8 32-2 6-32 1h-18l1-8 11-42 6-24-1-1-3 7-14 26-9 15-14 25-1 1-16 1h-14l-21-1-1-12-2-62-15 54-6 20-1 1h-44l-5-1 4-17 13-48 10-39 9-32 6-23z" fill="#FD7706"/>
<path transform="translate(1011,758)" d="m0 0h50l8 70 3 23 1 3 10-17 6-8 1-2v-15l-3-35-1-19h49l4 35 3 28 3 21 1 13 18-27 32-50 12-18 1-1 49-1-2 6-9 16-13 21-12 18-10 17-9 13-14 23-8 12-10 16-13 22-7 9-9 1h-22l-19-1-3-31-4 4-7 12-7 11-5 5h-48l-2-20-7-78-3-31-3-28z" fill="#FD7705"/>
<path transform="translate(1104,986)" d="m0 0h9l15 2 15 5 15 8 11 9 7 7 8 11 8 16 4 16 1 6v17l-3 17-5 13-7 12-12 14-12 10-17 9-14 4-7 1h-25l-15-3-17-8-13-10-11-11-9-14-6-14-3-11-1-7v-20l3-16 7-16 8-12 9-10 9-8 13-8 15-6 10-2z" fill="#FDFEFD"/>
<path transform="translate(929,758)" d="m0 0h24l14 3 12 6 12 11 8 11 4 8 3 9 1 6v24l-5 17-10 21-8 11-11 12-7 7-17 12-16 8-15 5-16 3h-17l-16-3-16-8-10-9-5-6-7-14-3-10-1-9v-15l4-17 6-16 8-15 11-13 10-10 13-10 14-8 16-7 12-3z" fill="#FD7706"/>
<path transform="translate(1320,758)" d="m0 0h21l15 3 14 7 10 9 7 9 8 17 3 15v10l-4 19-6 17-6 11-10 13-18 18-13 9-15 8-21 7-13 2h-17l-14-3-15-6-11-9v-2l-3-1-7-10-5-12-2-10-1-21 3-16 8-19 8-14 10-11 7-8 15-12 13-8 12-6 18-5z" fill="#FD7705"/>
<path transform="translate(606,758)" d="m0 0h23l16 4 10 5 12 11 7 10 6 12 3 12v17l-3 16-5 15-8 16-11 14-14 14-17 12-16 8-14 5-17 3h-14l-14-2-12-4-11-6-10-10-8-13-6-18v-21l6-24 7-16 10-14 11-12 11-10 15-10 19-9 15-4z" fill="#FD7705"/>
<path transform="translate(1426,758)" d="m0 0h100l12 2 10 5 7 6 4 6 3 11v22l-3 14-8 19-10 14-11 11-12 7 1 5 14 30 7 16 1 5-15 1h-15l-26-1-3-5-8-20-7-15-3-6v-2l-6-1h-9l-6 3-4 13-6 25-3 8-7 1-43-1 11-40 11-42 8-31 6-22z" fill="#FD7705"/>
<path transform="translate(734,986)" d="m0 0h105l-6 7-9 9-6 5-5 6-8 7-14 14-2 3-62 1-1 1 1 7 2 2 5 1 51 1 15 3 13 5 8 5 8 8 6 11 2 8 1 17-1 14-3 11-4 8-9 10-10 7-11 4-13 2-119 1 3-5 47-47 68-1v-8l-7-2-53-1-14-2-14-5-8-6-7-7-6-12-3-13v-24l4-15 5-9 5-6 11-7 12-5 9-2z" fill="#FDFEFD"/>
<path transform="translate(879,986)" d="m0 0h15l1 1v63l61-1v-62l3-1h48l1 1v176l-6 1h-44l-1-1v-63h-63l1 6v57l-51 1-1-131v-46z" fill="#FDFEFD"/>
<path transform="translate(1209,986)" d="m0 0h92l17 2 11 4 11 6 7 6 7 11 4 11 2 12v24l-3 16-6 12-9 10-9 6-10 4-11 2-15 1h-38l1 49-3 2h-47l-1-1z" fill="#FDFEFD"/>
<path transform="translate(535,525)" d="m0 0h24l24 2 26 5 20 6 21 9 17 9 14 10 13 10 12 11 10 11 11 15 8 14 8 16 8 21 6 24 1 5v7l-7 6h-9l-4-5-12-27-9-17-12-17-9-11-13-13-14-11-14-9-16-8-13-6-16-5-21-5-16-2-16-1h-13l-28 2-25 5-18 5-26 11-19 10-14 10-11 9-12 11-12 12-11 14-10 14-13 24-6 9-3 2h-6l-6-4-2-4 1-9 7-21 7-16 11-20 7-11 10-13 9-10 11-12 14-12 17-12 15-9 16-8 21-8 20-6 21-4 13-2z" fill="#FDFEFD"/>
<path transform="translate(1483,525)" d="m0 0h23l23 2 24 5 21 6 23 10 18 10 19 14 12 11 11 11 11 14 9 14 8 16 9 22 7 25 2 10-1 6-6 5h-9l-4-4-13-30-12-20-10-14-11-13-14-13-18-13-25-13-21-8-26-6-15-2-14-1h-15l-28 2-26 5-23 7-21 9-18 10-15 10-14 12h-2v2l-8 7-11 12-11 14-7 10-10 16-10 18-4 4-9-1-5-5v-9l5-16 7-18 11-21 14-21 9-11 9-10 12-12 14-11 14-10 21-12 21-9 18-6 25-6 20-3z" fill="#FDFEFD"/>
<path transform="translate(1214,117)" d="m0 0 19 1 15 5 11 6 10 8 9 9 9 14 5 11 4 16v19l-5 19-7 13-7 9-11 11-14 9-13 5-12 3h-19l-16-4-16-8-9-7-8-7-9-12-8-16-3-12v-25l4-16 5-10h2l2-5 3-5 9-11 12-9 15-7 12-3z" fill="#FD4906"/>
<path transform="translate(1591,758)" d="m0 0h49l-1 10-13 49-4 16 32-32 7-8 22-22 7-8 4-4 3-1h54l-2 4-8 8-7 8-29 29-5 6h-2l-2 4-25 25-1 6 10 25 18 39 8 18-2 2h-35l-19-1-3-5-13-30-11-23-5-14v-3h-3l-1 9-8 25-10 40-6 2h-33l-11-1 1-10 7-26 12-44 9-35 7-25z" fill="#FD7705"/>
<path transform="translate(703,758)" d="m0 0h147l1 2-10 42-2 5-2 1-49 1-6 26-12 44-13 50-1 2-3 1h-40l-7-1 8-32 10-36 7-26 6-24 1-5h-48l1-7 9-32z" fill="#FD7706"/>
<path transform="translate(615,1057)" d="m0 0h15l1 32-2 2-44-1-105-5-55-3-72-4-49-2-20-1-6-1v-1l5-1 65-2 70-4 145-7z" fill="#FD4906"/>
<path transform="translate(1400,1057)" d="m0 0 40 1 174 8 63 4 10 1 61 1 4 2-26 2-89 4-91 5-107 5-27 1h-13l-1-2 1-29z" fill="#FD4906"/>
<path transform="translate(1102,1037)" d="m0 0h10l12 3 9 6 8 9 4 10 1 5v10l-4 13-6 8-9 7-11 4h-16l-11-4-8-7-6-8-4-10v-15l4-11 7-10 12-8z" fill="#020100"/>
<path transform="translate(1311,815)" d="m0 0h10l9 3 6 7 2 5v10l-4 11-6 8-9 8-12 6-4 1h-13l-7-4-5-6-2-6v-7l3-10 6-10 10-9 12-6z" fill="#040100"/>
<path transform="translate(598,815)" d="m0 0h8l9 3 5 4 4 8v9l-4 12-7 9-8 7-12 6-4 1h-13l-7-4-6-9v-14l4-10 6-8 8-7 12-6z" fill="#030100"/>
<path transform="translate(922,815)" d="m0 0h9l8 3 5 5 3 4 1 3v10l-5 12-7 9-9 7-11 5-3 1h-13l-6-4-6-7-2-6 1-11 6-12 8-9 11-7z" fill="#030100"/>
<path transform="translate(595,808)" d="m0 0h14l11 4 5 4 6 10 1 3v12l-4 11-6 10-9 9-14 8-6 2-14 1-10-3-8-6-5-8-1-3v-15l3-9 5-9 8-9 10-7 10-4zm3 7-10 3-11 7-7 7-6 11-1 4v14l6 9 7 4h13l11-4 10-7 8-9 4-8 2-7v-9l-4-8-9-6-5-1z" fill="#FDFEFD"/>
<path transform="translate(1309,808)" d="m0 0h14l9 3 10 9 4 9v13l-4 10-6 10-10 10-10 6-14 4h-10l-9-3-8-6-5-8-1-3v-15l3-10 6-9 6-7 11-8 10-4zm2 7-11 4-11 8-7 8-5 11-1 5v7l4 9 7 6 3 1h13l11-4 10-7 7-7 6-12 1-4v-10l-4-8-6-5-7-2z" fill="#FDFEFD"/>
<path transform="translate(918,808)" d="m0 0h15l9 3 9 8 4 8 1 10-3 12-5 10-9 10-10 7-12 5-5 1h-11l-10-4-6-5-5-8-2-8 1-10 4-11 6-9 4-5 10-8 12-5zm4 7-10 3-11 7-8 9-6 12-1 11 3 8 7 7 4 2h13l12-5 10-7 7-8 5-11 1-3v-10l-3-6-5-5-5-3-4-1z" fill="#FDFEFD"/>
<path transform="translate(1259,1037)" d="m0 0h33l13 1 3 3 2 6-1 8-3 5-3 2-7 1h-37z" fill="#090400"/>
<path transform="translate(1464,808)" d="m0 0h38l6 2 2 2-1 9-3 6-6 5-8 1h-26l-8-1-1-3 3-12 2-7z" fill="#FDFEFD"/>
<path transform="translate(1560,840)" d="m0 0h1l-1 8-10 36-7 28-3-3-13-29 5-5 9-7 8-9z"/>
<path transform="translate(1214,117)" d="m0 0 19 1 15 5 11 6 10 8 9 9 9 14 5 11 3 10v15h-1l-2-12-3-12-7-14-7-11-4-4v-2l-4-2-8-6-11-7-14-5-8-1h-18l-15 4-16 7-6 4-9 9-10 15-5 9-4 9-2 12v15l3 14 4 9 3 6 3 3 10 13 8 7 13 8 16 7v1l-9-1-16-8-9-7-8-7-9-12-8-16-3-12v-25l4-16 5-10h2l2-5 3-5 9-11 12-9 15-7 12-3z" fill="#FD7706"/>
<path transform="translate(1631,1069)" d="m0 0h30l26 2 61 1 4 2-9 1-70 1h-40l-4-2-1-3h3z" fill="#FD811D"/>
<path transform="translate(348,1070)" d="m0 0h33l13 1-1 2 7 1v1h-116l-6-1v-1l5-1z" fill="#FD7606"/>
<path transform="translate(1147,160)" d="m0 0h3l-2 5-5 12-2 12v15l3 14 4 9 3 6 3 3 10 13 8 7 13 8 16 7v1l-9-1-16-8-9-7-8-7-9-12-8-16-3-12v-25l4-16z" fill="#FD6F06"/>
<path transform="translate(1468,815)" d="m0 0h34l-1 6-3 3-30 1-1-5z" fill="#0C0500"/>
<path transform="translate(1289,218)" d="m0 0 2 3-2 8-7 12-9 10-7 7-14 9-7 3h-5l3-2 11-7 10-8 8-4 5-7h2l2-9 7-14z" fill="#FD7006"/>
<path transform="translate(1400,1057)" d="m0 0 40 1 5 1v1l-41 1-2 5-1 21 13 1 1 2-3 1h-13l-1-2 1-29z" fill="#FD6D06"/>
<path transform="translate(721,399)" d="m0 0h5l-3 2-23 8-22 9-20 10-10 6-2-1 9-6 12-7 18-8z" fill="#FDFEFD"/>
<path transform="translate(1017,807)" d="m0 0h1l3 26 3 39v11l-2-4-5-58z" fill="#FD5906"/>
<path transform="translate(315,1071)" d="m0 0h21v2l-47 2-11-1v-1l5-1z" fill="#FD8D2D"/>
<path transform="translate(1147,160)" d="m0 0h3l-2 5-5 12-2 12v15l3 14 1 8-2-2-4-15v-25l4-16z" fill="#FD6806"/>
<path transform="translate(1268,251)" d="m0 0h3l-2 4-10 8-14 7h-5l3-2 11-7 10-8z" fill="#FD7306"/>
<path transform="translate(615,1057)" d="m0 0h15v6l-5-2v-2l-13 1h-27l1-2z" fill="#FD6606"/>
<path transform="translate(1173,130)" d="m0 0m-1 1v3l-10 10-10 15-4 2v-3h2l2-5 3-5 9-11z" fill="#FD8926"/>
<path transform="translate(1245,758)" d="m0 0h13l-2 4v-2l-45 1-4 2 2-4z" fill="#FD5306"/>
<path transform="translate(1400,1079)" d="m0 0h1v8l13 1 1 2-3 1h-13l-1-2z" fill="#FD7006"/>
<path transform="translate(1195,120)" d="m0 0m-4 1h4v2l-18 8-4 1 5-5z" fill="#FD7F13"/>
<path transform="translate(1214,117)" d="m0 0 15 1v1l-21 1-9 2-4-1 3-2z" fill="#FD7406"/>
<path transform="translate(1147,160)" d="m0 0h3l-2 5-5 12h-2l2-9z" fill="#FD7206"/>
<path transform="translate(629,1080)" d="m0 0h1l1 9-2 2h-7l-4-2 10-2z" fill="#FD6A06"/>
</svg>
